HIERARCHY
ROOT Hips
{
  OFFSET 0 0 0
  CHANNELS 6 Xposition Yposition Zposition Zrotation Yrotation Xrotation
  JOINT LeftThigh
  {
    OFFSET 8.409438 0 -5.917753
    CHANNELS 3 Zrotation Yrotation Xrotation
    JOINT LeftLeg
    {
      OFFSET 0 0 -42.358652
      CHANNELS 3 Zrotation Yrotation Xrotation
      JOINT LeftFoot
      {
        OFFSET 0 0 -39.357303
        CHANNELS 3 Zrotation Yrotation Xrotation
      }
    }
  }
  JOINT RightThigh
  {
    OFFSET -8.409438 0 -5.917753
    CHANNELS 3 Zrotation Yrotation Xrotation
    JOINT RightLeg
    {
      OFFSET 0 0 -42.358652
      CHANNELS 3 Zrotation Yrotation Xrotation
      JOINT RightFoot
      {
        OFFSET 0 0 -39.357303
        CHANNELS 3 Zrotation Yrotation Xrotation
      }
    }
  }
  JOINT SpineLow
  {
    OFFSET 0 0 4.719101
    CHANNELS 3 Zrotation Yrotation Xrotation
    JOINT SpineMid
    {
      OFFSET 0 0 12.899191
      CHANNELS 3 Zrotation Yrotation Xrotation
      JOINT Chest
      {
        OFFSET 0 0 12.899191
        CHANNELS 3 Zrotation Yrotation Xrotation
        JOINT LeftShoulder
        {
          OFFSET 7.550562 1.41573 9.438202
          CHANNELS 3 Zrotation Yrotation Xrotation
          JOINT LeftArm
          {
            OFFSET 9.155056 0 4.247191
            CHANNELS 3 Zrotation Yrotation Xrotation
            JOINT LeftForearm
            {
              OFFSET 0 0 25.771955
              CHANNELS 3 Zrotation Yrotation Xrotation
              JOINT LeftHand
              {
                OFFSET 0 0 25.197169
                CHANNELS 3 Zrotation Yrotation Xrotation
              }
            }
          }
        }
        JOINT RightShoulder
        {
          OFFSET -7.550562 1.41573 9.438202
          CHANNELS 3 Zrotation Yrotation Xrotation
          JOINT RightArm
          {
            OFFSET -9.155056 0 4.247191
            CHANNELS 3 Zrotation Yrotation Xrotation
            JOINT RightForearm
            {
              OFFSET 0 0 -25.771955
              CHANNELS 3 Zrotation Yrotation Xrotation
              JOINT RightHand
              {
                OFFSET 0 0 -25.197169
                CHANNELS 3 Zrotation Yrotation Xrotation
              }
            }
          }
        }
        JOINT Neck
        {
          OFFSET 0 0 15.101124
          CHANNELS 3 Zrotation Yrotation Xrotation
          JOINT Head
          {
            OFFSET 0 0 11.325843
            CHANNELS 3 Zrotation Yrotation Xrotation
            End Site
            {
              OFFSET 0 0 14.157303
            }
          }
        }
      }
    }
  }
}
MOTION
Frames: 10
Frame Time: 0.0
0.0  89.887642  0.0  -0.067835  -11.656303  -93.902548  8.906703  -17.688884  -9.186628  10.224259  5.195211  42.972178  4.866041  2.037956  1.879319  -19.8422  11.849587  -25.975725  6.073808  -0.940289  39.773417  9.618902  1.835139  1.516656  0.921889  -1.559748  0.394457  2.497559  -4.27763  1.019821  2.497559  -4.27763  1.019821  -15.838504  28.350661  7.446007  124.007878  35.672922  174.377678  14.634637  -33.750865  38.403367  92.009938  -4.97926  10.049556  -15.794066  15.598985  17.870577  56.233636  17.044758  16.434706  -11.262927  -28.327666  -57.916146  73.665829  -2.969757  -0.258471  5.504536  6.909006  7.965845  4.033755  5.25494  5.905204  
0.0  89.887642  0.0  0.561576  -12.128953  -94.166156  8.443908  -16.889823  -9.239995  10.276944  5.436558  43.534065  5.362123  2.212746  2.179888  -20.869068  12.580541  -27.263193  6.222223  -1.429309  41.212467  9.671443  1.985648  1.52081  0.895983  -1.467551  0.431568  2.42554  -4.026634  1.126326  2.42554  -4.026634  1.126326  -15.969375  28.216135  7.420249  124.211889  35.710151  173.835265  15.652903  -35.545395  37.994819  92.418967  -4.608485  10.380017  -16.084789  15.662413  17.866553  56.493753  17.085999  15.974021  -11.15693  -28.394952  -58.639236  72.866238  -3.015288  0.453945  5.846877  6.915918  8.061621  4.289081  5.265587  5.973061  
0.0  89.887642  0.0  1.333957  -12.999695  -94.494402  8.709857  -15.946288  -9.053047  10.232154  5.640719  43.739004  5.704514  2.354601  2.347822  -21.099968  13.26247  -28.311344  7.042643  -2.230631  42.659974  9.85575  2.620113  1.487037  0.891971  -1.356497  0.466014  2.414203  -3.724316  1.224728  2.414203  -3.724316  1.224728  -16.034005  28.154103  7.297991  124.720644  35.651642  173.149185  16.194006  -37.302203  37.949236  92.837877  -4.175842  10.906138  -15.958071  15.70333  17.95978  56.124443  17.013462  15.145711  -10.759256  -27.905908  -59.211419  72.265019  -3.112498  0.631245  6.353036  6.958521  8.16887  4.666476  5.305461  6.047234  
0.0  89.887642  0.0  2.184171  -13.797683  -94.56547  9.410649  -14.988128  -9.047381  10.125287  5.822058  43.773542  5.781298  2.444826  2.399892  -21.644084  13.646911  -29.582169  7.557087  -2.216954  43.521308  10.069818  2.737525  1.479435  0.848483  -1.246332  0.455077  2.29757  -3.422083  1.200966  2.29757  -3.422083  1.200965  -16.023274  28.291685  7.074194  125.454293  35.658745  172.303141  16.060162  -38.873618  38.447693  93.174345  -3.776812  11.383107  -15.819905  15.684976  17.794529  56.349123  17.152843  14.857813  -10.595385  -27.458454  -59.999725  71.693292  -3.320875  0.546014  6.989023  7.10674  8.253879  5.139724  5.426287  6.101764  
0.0  89.887642  0.0  2.939563  -14.328049  -94.597971  10.285784  -14.432707  -9.273158  9.651689  6.416974  43.82932  5.976787  2.523992  2.546865  -22.397906  13.843107  -30.5637  8.361679  -1.979448  44.041903  10.304848  2.753822  1.310767  0.751991  -1.152414  0.430496  2.036324  -3.162941  1.141538  2.036324  -3.162941  1.141538  -16.226085  28.555707  6.629403  126.617765  35.665599  171.421338  15.325329  -40.095062  39.439936  93.343667  -3.39183  11.426398  -15.621884  15.453231  17.518222  56.549309  17.49284  14.771699  -10.436088  -26.909513  -60.84932  71.049941  -3.650213  0.53029  7.681985  7.303072  8.34769  5.654689  5.58431  6.161191  
0.0  89.887642  0.0  3.449063  -14.168482  -94.789544  10.634874  -14.070291  -9.468149  8.977696  6.992303  43.92175  6.197406  2.603098  2.790782  -23.042859  14.170864  -30.661808  8.766684  -1.564881  44.029633  10.728366  2.723949  1.124981  0.576425  -1.096008  0.401024  1.558356  -3.005104  1.070631  1.558356  -3.005104  1.070631  -16.754084  28.883161  6.320289  128.231487  35.734245  170.774863  13.955966  -40.854315  40.960119  93.322313  -2.931243  10.955455  -15.565849  14.989189  17.39105  56.905346  18.190908  14.959189  -10.431218  -27.333912  -61.72261  70.965566  -3.818697  1.155975  8.27869  7.5173  8.563474  6.09564  5.75633  6.312398  
0.0  89.887642  0.0  3.728947  -12.55329  -95.031188  9.642749  -13.338638  -9.712351  8.181387  6.951239  43.987723  6.445588  2.661765  3.148116  -24.140131  14.876269  -29.877312  8.732024  -1.309495  43.325365  10.969865  2.691225  1.011165  0.18401  -1.038279  0.407571  0.485726  -2.841024  1.106772  0.485726  -2.841024  1.106772  -17.322495  29.075712  6.092103  129.958628  35.972449  170.340036  11.851637  -41.09015  42.977738  93.1872  -2.311115  10.098501  -15.537573  14.122022  17.24495  57.301402  19.301719  15.112752  -10.611934  -28.80587  -62.642858  71.628277  -4.066737  2.359614  8.836811  7.71956  8.673662  6.508967  5.917694  6.384745  
0.0  89.887642  0.0  3.691839  -9.994219  -95.336171  8.306627  -12.711242  -10.131594  7.025685  6.678024  44.15058  6.628278  2.635983  3.485266  -24.820216  15.799055  -28.156674  8.042879  -1.098096  42.239422  10.837499  2.727124  0.872004  -0.392564  -1.045144  0.444058  -1.092817  -2.849387  1.231428  -1.092817  -2.849387  1.231428  -17.630156  29.372095  6.032823  131.77804  36.218153  170.250509  8.997908  -40.751309  45.397954  92.76142  -1.391966  9.024757  -15.260075  13.441264  17.216914  57.651454  20.742876  14.925237  -10.717015  -30.327236  -63.73509  72.104211  -4.488069  3.396146  9.509562  8.077051  8.779852  7.005327  6.197374  6.449383  
0.0  89.887642  0.0  3.394153  -6.925951  -95.736097  7.106674  -12.297255  -10.37483  5.544043  6.305775  44.034424  6.705975  2.550501  3.820743  -24.935352  16.673654  -25.673991  6.918834  -0.712377  40.90064  10.492072  2.702692  0.710263  -0.965924  -1.142561  0.458844  -2.663643  -3.104035  1.300512  -2.663643  -3.104035  1.300512  -18.369338  29.758633  6.080786  133.683341  35.916822  170.556569  5.353727  -39.939198  48.180574  91.962755  -0.451279  8.174629  -15.541303  13.303767  17.285633  57.841359  22.184051  14.428204  -10.593353  -31.214054  -64.952155  71.885004  -4.698215  3.607923  9.862152  8.613804  9.089629  7.25557  6.610405  6.66646  
0.0  89.887642  0.0  2.873398  -3.325639  -95.852833  5.950583  -12.126858  -10.705115  3.669999  6.098097  43.383969  6.748605  2.396754  4.131911  -25.19485  17.133689  -23.104739  5.792287  -0.112503  39.315688  10.299053  2.713465  0.588226  -1.460872  -1.300185  0.31366  -4.013475  -3.533401  0.936402  -4.013474  -3.533401  0.936401  -19.62067  30.241342  6.571877  135.352783  34.786815  171.012613  0.850604  -38.640685  51.385584  90.841887  0.519495  7.80296  -16.971169  13.718247  17.441085  58.022773  23.119898  14.053269  -10.212099  -31.206944  -66.491592  71.270082  -4.578795  3.292213  9.665592  9.142072  9.84108  7.087606  7.015946  7.221552  
